<svg width="32" height="32" viewBox="0 0 32 32" fill="none" xmlns="http://www.w3.org/2000/svg">
<path d="M6.66667 2.66667C5.19387 2.66667 4 3.86667 4 5.33334V16V21.3333V29.3333C4 30.8 5.19387 32 6.66667 32H25.3333C26.8067 32 28 30.8 28 29.3333V21.3333V16V10.6667L20 2.66667H6.66667Z" fill="#8AA8CA"/>
<path d="M6.66667 1.33334C5.19387 1.33334 4 2.53334 4 4V14.6667V20V28C4 29.4667 5.19387 30.6667 6.66667 30.6667H25.3333C26.8067 30.6667 28 29.4667 28 28V20V14.6667V9.33334L20 1.33334H6.66667Z" fill="#A1C9F7"/>
<path d="M28 9.33334L20 1.33334V6.66667C20 8.13334 21.1933 9.33334 22.6667 9.33334H28Z" fill="#8AA8CA"/>
</svg>
