<svg width="42" height="42" viewBox="0 0 42 42" fill="none" xmlns="http://www.w3.org/2000/svg">
<path d="M15.7521 7.35418C16.3317 7.37308 16.7948 7.61878 17.1119 8.08918L17.9361 10.3152C18.0884 10.6281 18.3173 10.92 18.5252 11.1331C18.7898 11.403 19.1898 11.5531 19.739 11.5531H37.275L37.2729 30.4531C37.2446 31.4779 36.9579 32.1268 36.3951 32.7022C35.8019 33.3081 34.943 33.6031 33.8646 33.6031H9.1854C8.1081 33.6031 7.2492 33.3091 6.65595 32.7022C6.06375 32.0964 5.77605 31.2165 5.77605 30.114V7.35313H15.7532L15.7521 7.35418Z" fill="#8AA8CA"/>
<path d="M15.7521 7.35106C16.3317 7.36996 16.7948 7.61566 17.1119 8.08606L17.9361 10.3121C18.0884 10.625 18.3173 10.9169 18.5252 11.13C18.7898 11.3999 19.1898 11.55 19.739 11.55H37.275L37.2729 29.232C37.2446 30.2568 36.9579 31.0737 36.3951 31.6491C35.8019 32.255 34.943 32.55 33.8646 32.55H9.1854C8.1081 32.55 7.2492 32.256 6.65595 31.6491C6.06375 31.0433 5.77605 30.1634 5.77605 29.0609V7.35001L15.7532 7.35106H15.7521Z" fill="#A1C9F7"/>
</svg>
